<svg xmlns="http://www.w3.org/2000/svg" width="1010" height="11" viewBox="0 0 1010 11">
    <path fill="#E0E0E0" d="M1000.06.32l.435.244 8 4.5.775.436-.775.436-8 4.5-.436.245-.49-.872.436-.245 7.225-4.065-7.225-4.063-.436-.245.49-.872zM5 5v1H0V5h5zm8 0v1H8V5h5zm8 0v1h-5V5h5zm8 0v1h-5V5h5zm8 0v1h-5V5h5zm8 0v1h-5V5h5zm8 0v1h-5V5h5zm8 0v1h-5V5h5zm8 0v1h-5V5h5zm8 0v1h-5V5h5zm8 0v1h-5V5h5zm8 0v1h-5V5h5zm8 0v1h-5V5h5zm8 0v1h-5V5h5zm8 0v1h-5V5h5zm8 0v1h-5V5h5zm8 0v1h-5V5h5zm8 0v1h-5V5h5zm8 0v1h-5V5h5zm8 0v1h-5V5h5zm8 0v1h-5V5h5zm8 0v1h-5V5h5zm8 0v1h-5V5h5zm8 0v1h-5V5h5zm8 0v1h-5V5h5zm8 0v1h-5V5h5zm8 0v1h-5V5h5zm8 0v1h-5V5h5zm8 0v1h-5V5h5zm8 0v1h-5V5h5zm8 0v1h-5V5h5zm8 0v1h-5V5h5zm8 0v1h-5V5h5zm8 0v1h-5V5h5zm8 0v1h-5V5h5zm8 0v1h-5V5h5zm8 0v1h-5V5h5zm8 0v1h-5V5h5zm8 0v1h-5V5h5zm8 0v1h-5V5h5zm8 0v1h-5V5h5zm8 0v1h-5V5h5zm8 0v1h-5V5h5zm8 0v1h-5V5h5zm8 0v1h-5V5h5zm8 0v1h-5V5h5zm8 0v1h-5V5h5zm8 0v1h-5V5h5zm8 0v1h-5V5h5zm8 0v1h-5V5h5zm8 0v1h-5V5h5zm8 0v1h-5V5h5zm8 0v1h-5V5h5zm8 0v1h-5V5h5zm8 0v1h-5V5h5zm8 0v1h-5V5h5zm8 0v1h-5V5h5zm8 0v1h-5V5h5zm8 0v1h-5V5h5zm8 0v1h-5V5h5zm8 0v1h-5V5h5zm8 0v1h-5V5h5zm8 0v1h-5V5h5zm8 0v1h-5V5h5zm8 0v1h-5V5h5zm8 0v1h-5V5h5zm8 0v1h-5V5h5zm8 0v1h-5V5h5zm8 0v1h-5V5h5zm8 0v1h-5V5h5zm8 0v1h-5V5h5zm8 0v1h-5V5h5zm8 0v1h-5V5h5zm8 0v1h-5V5h5zm8 0v1h-5V5h5zm8 0v1h-5V5h5zm8 0v1h-5V5h5zm8 0v1h-5V5h5zm8 0v1h-5V5h5zm8 0v1h-5V5h5zm8 0v1h-5V5h5zm8 0v1h-5V5h5zm8 0v1h-5V5h5zm8 0v1h-5V5h5zm8 0v1h-5V5h5zm8 0v1h-5V5h5zm8 0v1h-5V5h5zm8 0v1h-5V5h5zm8 0v1h-5V5h5zm8 0v1h-5V5h5zm8 0v1h-5V5h5zm8 0v1h-5V5h5zm8 0v1h-5V5h5zm8 0v1h-5V5h5zm8 0v1h-5V5h5zm8 0v1h-5V5h5zm8 0v1h-5V5h5zm8 0v1h-5V5h5zm8 0v1h-5V5h5zm8 0v1h-5V5h5zm8 0v1h-5V5h5zm8 0v1h-5V5h5zm8 0v1h-5V5h5zm8 0v1h-5V5h5zm8 0v1h-5V5h5zm8 0v1h-5V5h5zm8 0v1h-5V5h5zm8 0v1h-5V5h5zm8 0v1h-5V5h5zm8 0v1h-5V5h5zm8 0v1h-5V5h5zm8 0v1h-5V5h5zm8 0v1h-5V5h5zm8 0v1h-5V5h5zm8 0v1h-5V5h5zm8 0v1h-5V5h5zm8 0v1h-5V5h5zm8 0v1h-5V5h5zm8 0v1h-5V5h5zm8 0v1h-5V5h5zm8 0v1h-5V5h5zm8 0v1h-5V5h5zm8 0v1h-5V5h5zm8 0v1h-5V5h5zm8 0v1h-5V5h5zm8 0v1h-5V5h5z"/>
</svg>
