<svg width="38" height="36" viewBox="0 0 38 36" fill="none" xmlns="http://www.w3.org/2000/svg">
<g clip-path="url(#clip0)">
<path d="M19.4283 36C29.6535 36 37.9426 27.9411 37.9426 18C37.9426 8.05887 29.6535 0 19.4283 0C9.20319 0 0.914062 8.05887 0.914062 18C0.914062 27.9411 9.20319 36 19.4283 36Z" fill="#3B5998"/>
<path fill-rule="evenodd" clip-rule="evenodd" d="M17.6047 26.9999V16.8049H15.6638V14.3199H17.6047V13.2419C17.6047 11.8199 18.0244 10.7169 18.8637 9.93191C19.704 9.14591 20.8797 8.75391 22.3896 8.75391C22.872 8.75391 23.4624 8.83191 24.1619 8.98791L24.1248 11.6129C23.7773 11.5367 23.4216 11.5015 23.0654 11.5079C21.755 11.5079 21.0998 12.1049 21.0998 13.3009V14.3209H23.6918V16.8049H21.0998V26.9999H17.6047Z" fill="white"/>
</g>
<defs>
<clipPath id="clip0">
<rect width="37.0286" height="36" fill="white" transform="translate(0.914062)"/>
</clipPath>
</defs>
</svg>
