<svg width="38" height="36" viewBox="0 0 38 36" fill="none" xmlns="http://www.w3.org/2000/svg">
<path fill-rule="evenodd" clip-rule="evenodd" d="M0.856934 18C0.856934 8.059 9.14619 0 19.3712 0C29.5962 0 37.8855 8.059 37.8855 18C37.8855 27.941 29.5962 36 19.3712 36C9.14619 36 0.856934 27.941 0.856934 18Z" fill="#0077B5"/>
<path fill-rule="evenodd" clip-rule="evenodd" d="M13.9403 14.908V27.165H9.74471V14.908H13.9413H13.9403ZM14.218 11.117C14.218 12.294 13.3056 13.236 11.842 13.236H11.8163C10.4071 13.236 9.49683 12.294 9.49683 11.117C9.49683 9.915 10.4349 9 11.8708 9C13.3056 9 14.1902 9.915 14.2169 11.117H14.218ZM29.0726 20.137V27.165H24.876V20.608C24.876 18.961 24.2692 17.837 22.75 17.837C21.5908 17.837 20.9006 18.594 20.5972 19.327C20.4861 19.588 20.4593 19.954 20.4593 20.32V27.165H16.2628C16.2628 27.165 16.3183 16.059 16.2628 14.909H20.4593V16.645C21.0158 15.81 22.0135 14.621 24.2414 14.621C27.0021 14.621 29.0726 16.373 29.0726 20.137Z" fill="white"/>
</svg>
