<svg width="94" height="23" viewBox="0 0 94 23" fill="none" xmlns="http://www.w3.org/2000/svg">
<mask id="mask0" mask-type="alpha" maskUnits="userSpaceOnUse" x="0" y="0" width="94" height="23">
<path d="M0.70166 0.209961H93.893V22.769H0.70166V0.209961Z" fill="white"/>
</mask>
<g mask="url(#mask0)">
<path fill-rule="evenodd" clip-rule="evenodd" d="M25.9436 17.9199C23.4017 17.9199 22.2521 15.8334 22.2521 13.8217C22.2521 11.8068 23.4 9.72025 25.9436 9.72025C28.4856 9.72025 29.6369 11.8068 29.6369 13.8217C29.6369 15.835 28.4856 17.9199 25.9436 17.9199ZM43.5132 18.8558C43.5132 18.8558 42.8676 19.0456 42.0281 18.8558C41.1887 18.6643 40.415 18.3445 40.415 17.5486V10.1565H43.5806L42.8221 6.30151H40.415V0.588054L34.4764 1.46397V10.8093C33.224 7.34728 29.8763 4.87106 25.9436 4.87106C22.0683 4.87106 18.7628 7.27567 17.4682 10.6561V7.97174C17.4682 7.97174 16.2006 5.26239 10.3682 5.26239C8.99272 5.26239 7.69645 5.44057 6.53672 5.70035V0.566406L0.599854 1.43733V22.5027H6.53672V9.94006C7.87345 9.70526 8.72976 9.65864 9.89623 9.84847C10.7458 9.98835 11.533 10.3664 11.533 11.5137V22.5027H17.4682V16.9857C18.7628 20.3661 22.0683 22.7691 25.9436 22.7691C29.8763 22.7691 33.224 20.2945 34.4764 16.8342V20.9007C34.4764 20.9007 36.7369 22.5027 40.2734 22.5027C43.8048 22.5027 44.5836 21.9465 44.5836 21.9465L43.5132 18.8558Z" fill="#EE9F38"/>
<path fill-rule="evenodd" clip-rule="evenodd" d="M84.928 9.30552C87.3132 9.30552 88.3144 11.0241 88.4308 12.4761H81.3291C81.4488 10.9791 82.5917 9.30552 84.928 9.30552ZM84.8723 18.7025C83.158 18.2779 82.2124 17.3836 81.8398 16.2063H93.8923L93.8788 14.5094C93.8788 8.48123 89.7354 4.86931 84.8825 4.86931C81.0611 4.86931 77.7943 7.20898 76.4643 10.5162V7.93503C76.4643 7.93503 74.2713 5.33558 69.1503 5.11244C64.0461 4.89096 59.5758 5.93507 59.5758 5.93507V22.4659H65.5143V9.90501C66.8628 9.66854 67.7208 9.62025 68.8907 9.81175C69.7402 9.9483 70.5274 10.328 70.5274 11.5503V22.4659H76.4643V17.1255C77.7943 20.431 81.0611 22.769 84.8825 22.769C88.2538 22.769 90.6996 21.8581 92.3668 19.7849L90.3372 17.8266C88.301 19.0522 85.9967 18.9806 84.8723 18.7025ZM44.7117 22.1179H50.6469V0.57798L44.7117 1.45556V22.1179ZM52.1184 22.1795H58.0553V7.60031H52.1184V22.1795ZM55.0852 0.209961C53.3995 0.209961 52.0341 1.55881 52.0341 3.22239C52.0341 4.8893 53.3995 6.23814 55.0852 6.23814C56.7725 6.23814 58.1345 4.8893 58.1345 3.22239C58.1362 1.55881 56.7725 0.209961 55.0852 0.209961Z" fill="#5DADFF"/>
</g>
</svg>
