<svg width="135" height="36" viewBox="0 0 135 36" fill="none" xmlns="http://www.w3.org/2000/svg">
<g clip-path="url(#clip0)">
<path d="M47.7112 14.2639H48.9765L52.5913 23.4869L56.1451 14.2639H57.4104L53.1342 25.1323H51.9299L47.7112 14.2639ZM58.1041 15.5563V14.2639H59.4897V15.5563H58.1041ZM58.1669 25.1323H59.4269V16.9665H58.1669V25.1323ZM61.5681 24.4536V13.5842H62.9537V24.4519H61.5681V24.4536ZM64.3393 24.4536V13.5842H65.7249V24.4519L64.3393 24.4536ZM67.1105 21.8107C67.1105 21.4735 67.1715 21.1363 67.2927 20.8554C67.4055 20.5999 67.5711 20.37 67.7791 20.1802C67.9613 20.0116 68.2655 19.843 68.5688 19.7306C68.873 19.6182 69.1773 19.5058 69.4196 19.4496C69.6628 19.3934 69.967 19.3372 70.2703 19.3372C70.5754 19.281 70.8177 19.281 70.9999 19.281H71.4863L72.8234 19.3372C72.8234 18.6067 72.6413 18.1009 72.2159 17.82C71.7905 17.539 71.1821 17.3695 70.3924 17.3695C69.4806 17.3695 68.6298 17.4819 67.9002 17.7638V16.6952C68.7234 16.4277 69.586 16.2948 70.4534 16.3018C71.6074 16.3018 72.5192 16.5828 73.1277 17.1447C73.7352 17.7067 74.0385 18.4943 74.0385 19.562V21.924C74.0385 22.4288 73.9174 22.8222 73.6742 23.2164C73.431 23.5536 73.1268 23.8346 72.7014 24.0032C72.276 24.1718 71.9117 24.2842 71.6074 24.3403C71.2431 24.3965 70.9389 24.4527 70.5754 24.4527C70.3313 24.4527 70.028 24.4527 69.7848 24.3965C69.5416 24.3403 69.1773 24.2842 68.873 24.1718C68.5087 24.0594 68.2045 23.947 67.9613 23.7784C67.6817 23.5909 67.4524 23.3403 67.2927 23.0479C67.1105 22.7098 67.1105 22.2049 67.1105 21.8107ZM68.3256 21.8107C68.3256 22.766 69.1153 23.2726 70.6355 23.2726C72.1549 23.2726 72.8836 22.8222 72.8836 21.8678V20.3487C72.381 20.2713 71.8729 20.2338 71.3642 20.2363C69.3594 20.2363 68.3256 20.743 68.3256 21.8107ZM74.7313 20.5437C74.7313 19.7183 74.8507 18.9526 75.0903 18.3635C75.329 17.7752 75.6278 17.3625 76.0451 17.0675C76.3903 16.8153 76.7732 16.6169 77.1804 16.4792C77.5393 16.3606 77.8974 16.3018 78.3147 16.3018C79.0326 16.3018 79.6294 16.4195 80.1068 16.5968C80.5842 16.7724 80.9432 17.0675 81.1218 17.3625C81.3013 17.6566 81.4206 17.9508 81.54 18.1879C81.6001 18.4232 81.6593 18.6585 81.6593 18.835V25.0208C81.6593 25.3747 81.6001 25.7285 81.4799 26.0227C81.3461 26.3412 81.1653 26.6388 80.9432 26.906C80.7045 27.201 80.3455 27.4363 79.808 27.6137C79.3306 27.7893 78.7329 27.849 78.0168 27.849C77.2396 27.849 76.4642 27.7314 75.6871 27.554V26.4354C76.4041 26.6119 77.1202 26.7295 77.8974 26.7295C78.435 26.7295 78.8522 26.6707 79.2112 26.6119C79.5702 26.4942 79.808 26.3765 79.9875 26.1992C80.167 26.0227 80.2863 25.8462 80.3464 25.6688C80.4057 25.4932 80.4057 25.3159 80.4057 25.0805V24.2552C79.7672 24.4481 79.1031 24.5476 78.4349 24.5502C78.076 24.5502 77.717 24.4905 77.4191 24.4317C77.0828 24.3664 76.7598 24.2471 76.4633 24.0787C76.1044 23.9022 75.8666 23.666 75.6278 23.3719C75.3882 23.0768 75.2097 22.7239 75.0302 22.1935C74.8507 21.6632 74.7313 21.1925 74.7313 20.5437ZM75.9859 20.5437C75.9859 21.1328 76.0451 21.6632 76.1654 22.0759C76.2848 22.4885 76.4633 22.7827 76.7622 22.9592C77.0009 23.1357 77.2997 23.2533 77.5384 23.3719C77.7771 23.4307 78.0769 23.4895 78.4349 23.4895C79.0919 23.4895 79.7488 23.3719 80.4057 23.1357V18.8947C80.4057 17.9517 79.6886 17.539 78.3147 17.539C78.0168 17.539 77.7771 17.5978 77.5384 17.6566C77.2647 17.7254 77.0165 17.8685 76.8223 18.0693C76.5827 18.2458 76.344 18.5997 76.2246 19.0115C76.0451 19.3653 75.9859 19.8957 75.9859 20.5437ZM82.3521 20.4901V20.3777C82.3521 17.6602 83.4883 16.3018 85.8162 16.3018C86.2711 16.3018 86.7252 16.3589 87.1228 16.5283C87.5203 16.6978 87.8048 16.8682 88.031 17.0376C88.2589 17.2642 88.486 17.4907 88.6565 17.8305C88.827 18.1694 88.94 18.453 89.054 18.6796C89.1106 18.9052 89.1671 19.1888 89.2245 19.5286C89.2811 19.8676 89.2811 20.0379 89.2811 20.1512V20.4901L89.2236 21.0564H83.4892C83.5448 21.8493 83.8293 22.4148 84.2268 22.7546C84.6244 23.0944 85.249 23.2639 86.0441 23.2639C87.1793 23.2639 88.0884 23.0944 88.713 22.6984V23.8864C87.9744 24.2262 87.0088 24.4527 85.931 24.4527H85.8736C85.4195 24.4527 84.9645 24.3965 84.6244 24.2833C84.2268 24.1691 83.8858 23.9997 83.4883 23.7169C83.0907 23.4342 82.8062 23.0373 82.6357 22.4719C82.4417 21.8286 82.3461 21.1608 82.3521 20.4901ZM83.4883 20.0379H88.0884C88.0884 19.8676 88.0884 19.641 88.031 19.4145C87.9744 19.1888 87.9179 18.9052 87.7474 18.5663C87.6343 18.2265 87.4064 17.9429 87.0088 17.7172C86.6678 17.4907 86.2711 17.3774 85.7596 17.3774C84.9645 17.3774 84.3974 17.604 84.0563 18C83.7153 18.396 83.5448 19.0756 83.4883 20.037V20.0379ZM91.3595 19.0466C91.3595 15.4246 93.0574 13.5851 96.3939 13.5851C97.5651 13.5851 98.6779 13.8152 99.6731 14.2173V15.3096C98.6195 14.9075 97.5651 14.6774 96.5115 14.6774C95.1062 14.6774 94.1109 15.0225 93.4666 15.7118C92.8231 16.4019 92.5306 17.5522 92.5306 19.0466C92.5306 20.5419 92.8231 21.6913 93.4666 22.3814C94.1109 23.0716 95.1062 23.4166 96.5115 23.4166C97.6243 23.4166 98.6779 23.1866 99.6731 22.7844V23.8767C98.6195 24.2789 97.5651 24.4519 96.3939 24.4519H96.3356C93.0574 24.5089 91.3595 22.6694 91.3595 19.0466ZM100.366 21.8107C100.366 21.4735 100.427 21.1363 100.548 20.8554C100.661 20.5999 100.827 20.37 101.034 20.1802C101.217 20.0116 101.521 19.843 101.824 19.7306C102.128 19.6182 102.433 19.5058 102.675 19.4496C102.918 19.3934 103.222 19.3372 103.526 19.3372C103.831 19.281 104.073 19.281 104.255 19.281H104.742L106.079 19.3372C106.079 18.6067 105.897 18.1009 105.471 17.82C105.046 17.539 104.437 17.3695 103.648 17.3695C102.736 17.3695 101.885 17.4819 101.156 17.7638V16.6952C101.979 16.4277 102.841 16.2948 103.709 16.3018C104.863 16.3018 105.775 16.5828 106.383 17.1447C106.991 17.7067 107.294 18.4943 107.294 19.562V21.924C107.294 22.4288 107.173 22.8222 106.93 23.2164C106.686 23.6098 106.382 23.8346 105.957 24.0032C105.531 24.1718 105.167 24.2842 104.863 24.3403C104.498 24.3965 104.194 24.4527 103.831 24.4527C103.587 24.4527 103.283 24.4527 103.04 24.3965C102.797 24.3403 102.433 24.2842 102.128 24.1718C101.764 24.0594 101.46 23.947 101.217 23.7784C100.937 23.5909 100.708 23.3403 100.548 23.0479C100.427 22.5974 100.366 22.2602 100.366 21.8107ZM101.581 21.8107C101.581 22.766 102.371 23.2726 103.891 23.2726C105.41 23.2726 106.139 22.8222 106.139 21.8678V20.3487C105.636 20.2713 105.128 20.2338 104.62 20.2363C102.615 20.2934 101.581 20.7983 101.581 21.8107ZM108.679 27.1694V18.7358C108.679 18.5092 108.738 18.2827 108.796 18.1123C108.872 17.8226 109.011 17.5523 109.204 17.3203C109.437 17.0376 109.728 16.7549 110.252 16.5845C110.718 16.4151 111.358 16.3018 112.056 16.3018C112.347 16.3018 112.639 16.3018 112.93 16.3589C113.221 16.4151 113.512 16.5283 113.861 16.6978C114.211 16.8682 114.502 17.0947 114.734 17.3774C114.968 17.6602 115.201 18.0562 115.375 18.5663C115.55 19.0756 115.608 19.6981 115.608 20.3777C115.608 21.1697 115.492 21.8493 115.258 22.3586C115.025 22.9241 114.734 23.3209 114.385 23.6037C113.978 23.8864 113.629 24.0567 113.221 24.17C112.805 24.2857 112.373 24.3427 111.94 24.3395C111.3 24.3395 110.601 24.2262 109.96 24.0567V27.1694H108.679ZM109.844 22.9241C110.484 23.2077 111.125 23.3209 111.824 23.3209C112.697 23.3209 113.337 23.0944 113.744 22.6413C114.153 22.1882 114.328 21.4524 114.328 20.4339C114.328 19.7543 114.269 19.245 114.094 18.792C113.978 18.3398 113.744 18.0562 113.511 17.8305C113.3 17.6344 113.039 17.4974 112.756 17.4336C112.489 17.3642 112.215 17.3261 111.94 17.3203C110.484 17.3203 109.786 17.7734 109.786 18.7358V22.9241H109.844ZM116.994 14.8776V13.5851H118.38V14.8776H116.993H116.994ZM117.057 24.4527H118.316V16.2869H117.057V24.4527ZM119.072 17.4907V16.4722H120.526V14.2639H121.74V16.4713H123.922V17.4898H121.74V22.3015C121.74 22.6984 121.8 22.9811 121.982 23.1506C122.164 23.3209 122.466 23.3771 122.951 23.3771C123.315 23.3771 123.619 23.3209 123.922 23.2077V24.2833C123.558 24.3965 123.195 24.4527 122.831 24.4527H122.77C122.527 24.4527 122.345 24.4527 122.103 24.3965C121.861 24.3395 121.618 24.2824 121.376 24.1129C121.134 23.9997 120.891 23.7731 120.708 23.4342C120.527 23.0944 120.466 22.6984 120.466 22.2453V17.4907H119.072ZM124.615 21.8107C124.615 21.4735 124.675 21.1363 124.797 20.8554C124.91 20.5999 125.075 20.37 125.283 20.1802C125.466 20.0116 125.769 19.843 126.073 19.7306C126.377 19.6182 126.681 19.5058 126.924 19.4496C127.167 19.3934 127.471 19.3372 127.775 19.3372C128.079 19.281 128.322 19.281 128.504 19.281H128.991L130.328 19.3372C130.328 18.6067 130.145 18.1009 129.719 17.82C129.294 17.539 128.686 17.3695 127.897 17.3695C126.985 17.3695 126.134 17.4819 125.405 17.7638V16.6952C126.227 16.4278 127.09 16.2949 127.957 16.3018C129.112 16.3018 130.024 16.5828 130.631 17.1447C131.239 17.7067 131.543 18.4943 131.543 19.562V21.924C131.543 22.4288 131.421 22.8222 131.178 23.2164C130.935 23.5536 130.631 23.8346 130.206 24.0032C129.78 24.1718 129.416 24.2842 129.112 24.3403C128.747 24.3965 128.443 24.4527 128.079 24.4527C127.836 24.4527 127.531 24.4527 127.289 24.3965C127.046 24.3403 126.681 24.2842 126.377 24.1718C126.012 24.0594 125.709 23.947 125.466 23.7784C125.186 23.5909 124.957 23.3403 124.797 23.0479C124.681 22.6451 124.62 22.2291 124.615 21.8107ZM125.83 21.8107C125.83 22.766 126.62 23.2726 128.14 23.2726C129.659 23.2726 130.388 22.8222 130.388 21.8678V20.3487C129.885 20.2713 129.377 20.2338 128.869 20.2363C126.803 20.2363 125.83 20.743 125.83 21.8107ZM132.928 23.7731V12.9055H134.314V23.7731H132.928Z" fill="black"/>
<path d="M22.879 2.78684C22.879 4.29708 21.6451 5.51581 20.1168 5.51581C18.5876 5.51581 17.2944 4.29708 17.2944 2.78684C17.2944 1.27659 18.5293 0.0578613 20.0585 0.0578613C21.5859 0.0578613 22.8207 1.27747 22.879 2.78684Z" fill="#3BC9F2"/>
<path d="M20.1171 13.0065C15.9432 13.0065 13.0042 7.78031 12.5923 6.61953C12.2396 5.45787 13.5328 4.47094 14.3557 5.22606C15.1786 5.92236 17.6474 8.24479 20.0578 8.24479C22.5266 8.24479 24.9371 5.92236 25.76 5.16723C26.5829 4.47094 27.9353 5.39992 27.5234 6.56157C27.1707 7.72236 24.29 13.0065 20.1171 13.0065ZM4.83236 11.555C6.30232 12.0195 7.12524 13.5289 6.655 14.9803C6.18476 16.4326 4.59724 17.1868 3.12817 16.7224C1.65821 16.2579 0.835289 14.7485 1.30643 13.2971C1.77578 11.9027 3.3633 11.0905 4.83326 11.555" fill="#3BC9F2"/>
<path d="M13.8267 17.4774C12.5918 21.3092 6.59533 22.3549 5.36139 22.3549C4.12655 22.3549 3.59797 20.8447 4.53846 20.3223C5.47895 19.7998 8.4772 18.2905 9.18256 16.026C9.88793 13.8194 8.35964 10.8578 7.94773 9.9288C7.47748 8.94188 8.82988 8.07085 9.8287 8.76715C10.8284 9.40637 15.0606 13.6447 13.8267 17.4774ZM7.94773 31.0643C8.82988 29.8447 10.5933 29.5541 11.8272 30.426C13.0621 31.297 13.3564 33.0382 12.4743 34.2578C11.5921 35.4774 9.8287 35.768 8.59476 34.897C7.30159 33.9671 7.00724 32.2839 7.94862 31.0643" fill="#3BC9F2"/>
<path d="M16.3539 24.7934C19.8224 27.1158 19.2939 33.0383 18.9403 34.1999C18.5876 35.3616 16.9417 35.4195 16.6483 34.3738C16.3539 33.3289 15.6486 30.0775 13.6509 28.742C11.5923 27.4065 8.30056 27.9869 7.18418 28.1028C6.06691 28.2195 5.53743 26.7093 6.53715 25.955C7.47764 25.2579 12.8863 22.4709 16.3548 24.7934H16.3539ZM35.5765 12.0775C34.1074 12.542 33.3428 14.1093 33.8131 15.5027C34.2833 16.955 35.8708 17.7093 37.3399 17.2448C38.8099 16.7803 39.5744 15.213 39.1042 13.8195C38.634 12.4261 37.0464 11.613 35.5774 12.0775" fill="#3BC9F2"/>
<path d="M26.7001 18.0578C27.9933 21.8326 33.8722 22.8195 35.1062 22.8195C36.341 22.8195 36.8696 21.3092 35.9291 20.7868C34.9886 20.2644 31.9913 18.813 31.285 16.6064C30.5213 14.3999 32.0496 11.4962 32.4606 10.5092C32.9317 9.52232 31.5794 8.6513 30.5796 9.34847C29.5808 9.98681 25.4662 14.2831 26.7001 18.0587V18.0578ZM32.9317 31.1223C31.9913 29.9027 30.2862 29.6121 29.0513 30.5419C27.8174 31.413 27.5231 33.155 28.4635 34.3737C29.404 35.5942 31.1091 35.884 32.3439 34.955C33.5779 34.084 33.8722 32.3419 32.9317 31.1223Z" fill="#3BC9F2"/>
<path d="M24.408 25.4327C21.1746 27.9878 22.2326 33.8514 22.7029 34.9551C23.1731 36.0579 24.7597 36 24.9949 34.9551C25.1717 33.9102 25.5836 30.6 27.4645 29.0897C29.3455 27.5804 32.6964 27.871 33.8128 27.929C34.9301 27.9869 35.3411 26.4187 34.2831 25.7804C33.225 25.142 27.6404 22.8775 24.4071 25.4327" fill="#3BC9F2"/>
</g>
<defs>
<clipPath id="clip0">
<rect width="133.714" height="36" fill="white" transform="translate(0.599854)"/>
</clipPath>
</defs>
</svg>
