<svg width="134" height="29" viewBox="0 0 134 29" fill="none" xmlns="http://www.w3.org/2000/svg">
<path d="M123.842 16.1291C123.842 15.8495 123.903 15.5667 124.027 15.2775C124.148 14.9893 124.327 14.7247 124.563 14.4826C124.798 14.2405 125.096 14.0413 125.454 13.8827C125.811 13.7242 126.225 13.6449 126.697 13.6449C127.166 13.6449 127.572 13.7242 127.911 13.8827C128.251 14.0413 128.533 14.2405 128.759 14.4826C128.985 14.7247 129.154 14.9893 129.267 15.2775C129.381 15.5667 129.436 15.8495 129.436 16.1291H123.842ZM131.331 20.0916C131.028 20.3155 130.548 20.5801 129.89 20.8876C129.229 21.1939 128.373 21.3482 127.318 21.3482C126.243 21.3482 125.401 21.0825 124.789 20.5523C124.177 20.022 123.861 19.4039 123.842 18.6969H133.279V18.0274C133.279 16.9293 133.139 15.9192 132.856 14.999C132.574 14.0777 132.154 13.2871 131.599 12.6262C131.043 11.9663 130.359 11.45 129.55 11.0782C128.74 10.7055 127.799 10.5201 126.725 10.5201C125.651 10.5201 124.69 10.7108 123.842 11.0922C122.995 11.4735 122.279 11.9802 121.695 12.6123C121.111 13.2454 120.665 13.9845 120.353 14.8319C120.043 15.6781 119.887 16.5576 119.887 17.4682C119.887 18.5105 120.052 19.4639 120.382 20.3295C120.711 21.1939 121.192 21.9342 121.823 22.548C122.453 23.1618 123.222 23.6417 124.125 23.9856C125.03 24.3295 126.046 24.5019 127.177 24.5019C128.024 24.5019 128.777 24.4216 129.436 24.2641C130.097 24.1056 130.666 23.9245 131.147 23.7199C131.627 23.5153 132.017 23.3064 132.318 23.0922C132.62 22.8779 132.846 22.7247 132.997 22.6316L131.331 20.0916ZM86.2972 20.5662C86.0336 20.7526 85.7517 20.9154 85.4502 21.0547C85.1487 21.1939 84.7908 21.2647 84.3765 21.2647C83.8299 21.2647 83.4297 21.0922 83.1759 20.7472C82.9211 20.4034 82.7942 19.9149 82.7942 19.2829V14.1195H86.2137V10.9658H82.7942V7.45853H78.7261V10.9658H76.6287V14.1195H78.7261V19.059C78.7261 19.8785 78.8107 20.6219 78.9799 21.2925C79.1502 21.962 79.4322 22.5341 79.828 23.0086C80.2228 23.4832 80.7412 23.8549 81.381 24.1249C82.022 24.3937 82.8137 24.5298 83.7551 24.5298C85.2615 24.5298 86.6562 24.0274 87.937 23.0226L86.2972 20.5662ZM121.52 6.30587C120.917 5.80346 120.249 5.44996 119.515 5.24535C118.78 5.04074 118.054 4.9379 117.338 4.9379C116.662 4.9379 115.997 5.04503 115.347 5.25928C114.698 5.47352 114.118 5.79918 113.609 6.23625C113.1 6.67331 112.691 7.22607 112.381 7.89666C112.07 8.56619 111.914 9.3664 111.914 10.2962V10.9658H109.767V14.1195H111.914V24.0552H115.953V14.1195H119.091V10.9658H115.953V10.2405C115.953 9.58922 116.124 9.08681 116.463 8.7333C116.802 8.38087 117.254 8.20304 117.819 8.20304C118.177 8.20304 118.525 8.25874 118.864 8.37015C119.204 8.48263 119.515 8.64118 119.797 8.84471L121.52 6.30587ZM103.64 24.0552H107.708V10.9658H105.673H103.64V24.0552ZM89.4597 24.0552H101.856V20.608H93.7262V5.44032H89.4597V24.0552ZM66.2183 16.1291C66.2183 15.8495 66.2791 15.5667 66.4016 15.2775C66.5242 14.9893 66.7031 14.7247 66.9385 14.4826C67.1738 14.2405 67.471 14.0413 67.8289 13.8827C68.1868 13.7242 68.601 13.6449 69.0717 13.6449C69.5424 13.6449 69.948 13.7242 70.2864 13.8827C70.6258 14.0413 70.9089 14.2405 71.1345 14.4826C71.3601 14.7247 71.5303 14.9893 71.6431 15.2775C71.7559 15.5667 71.8123 15.8495 71.8123 16.1291H66.2183ZM73.7059 20.0916C73.4044 20.3155 72.9239 20.5801 72.2646 20.8876C71.6052 21.1939 70.7484 21.3482 69.6932 21.3482C68.6195 21.3482 67.7768 21.0825 67.1651 20.5523C66.5524 20.022 66.2368 19.4039 66.2183 18.6969H75.6548V18.0274C75.6548 16.9293 75.5138 15.9192 75.2318 14.999C74.9487 14.0777 74.529 13.2871 73.9738 12.6262C73.4185 11.9663 72.7352 11.45 71.9251 11.0782C71.116 10.7055 70.1736 10.5201 69.0999 10.5201C68.0262 10.5201 67.0664 10.7108 66.2183 11.0922C65.3713 11.4735 64.6545 11.9802 64.071 12.6123C63.4864 13.2454 63.0396 13.9845 62.7294 14.8319C62.4182 15.6781 62.2631 16.5576 62.2631 17.4682C62.2631 18.5105 62.4269 19.4639 62.7576 20.3295C63.0862 21.1939 63.5667 21.9342 64.1979 22.548C64.8291 23.1618 65.5969 23.6417 66.5003 23.9856C67.4048 24.3295 68.4221 24.5019 69.5522 24.5019C70.4003 24.5019 71.1529 24.4216 71.8123 24.2641C72.4717 24.1056 73.0422 23.9245 73.5226 23.7199C74.002 23.5153 74.3935 23.3064 74.6939 23.0922C74.9954 22.8779 75.222 22.7247 75.3728 22.6316L73.7059 20.0916ZM40.9587 24.0552H45.0268L45.5072 11.9706L49.6327 19.1436H51.8365L55.7354 11.887L56.2722 24.0552H60.5387L59.6624 5.44032H55.5933L50.791 14.1752L45.8749 5.44032H41.834L40.9587 24.0552ZM105.673 9.46924C104.417 9.46924 103.381 8.44514 103.381 7.20357C103.381 5.96201 104.417 4.9379 105.673 4.9379C106.962 4.9379 107.967 5.93094 107.967 7.20357C107.967 8.44514 106.93 9.46924 105.673 9.46924Z" fill="#231F20"/>
<path d="M15.8772 9.53867C19.0776 13.724 20.9766 18.9366 20.9766 24.5906C20.9766 25.9543 20.8649 27.2923 20.6513 28.5981H29.9174C30.7232 28.5981 31.3761 27.9511 31.3761 27.153V1.84932C31.3761 0.90663 30.477 0.209251 29.5563 0.449209C24.023 1.89217 19.2338 5.14873 15.8772 9.53867Z" fill="#99D538"/>
<path d="M11.103 28.5974C10.8904 27.2926 10.7777 25.9547 10.7777 24.5899C10.7777 18.937 12.6777 13.7233 15.8771 9.53794C12.5205 5.148 7.73123 1.89144 2.198 0.449553C1.27724 0.209595 0.378174 0.905901 0.378174 1.84859V27.1534C0.378174 27.9504 1.03214 28.5974 1.83794 28.5974H11.103Z" fill="#239DE0"/>
<path d="M15.8773 9.53867C12.6768 13.724 10.7778 18.9366 10.7778 24.5906C10.7778 25.9543 10.8895 27.2923 11.1032 28.5981H20.6513C20.865 27.2923 20.9767 25.9543 20.9767 24.5906C20.9767 18.9366 19.0777 13.724 15.8773 9.53867Z" fill="#1563A9"/>
</svg>
