<svg width="38" height="36" viewBox="0 0 38 36" fill="none" xmlns="http://www.w3.org/2000/svg">
<path d="M19.1141 36C29.3393 36 37.6284 27.9411 37.6284 18C37.6284 8.05888 29.3393 0 19.1141 0C8.88898 0 0.599854 8.05888 0.599854 18C0.599854 27.9411 8.88898 36 19.1141 36Z" fill="url(#paint0_linear)"/>
<path fill-rule="evenodd" clip-rule="evenodd" d="M15.72 26.2498C15.1202 26.2498 15.2216 26.0302 15.015 25.4743L13.251 19.831L26.8286 12.0002" fill="#C8DAEA"/>
<path fill-rule="evenodd" clip-rule="evenodd" d="M15.72 26.2497C16.1828 26.2497 16.3865 26.0445 16.6457 25.7997L19.114 23.4669L16.0347 21.6611" fill="#A9C9DD"/>
<path fill-rule="evenodd" clip-rule="evenodd" d="M16.0348 21.6612L23.4961 27.0209C24.3478 27.4774 24.9624 27.2412 25.1735 26.2526L28.2113 12.3379C28.5224 11.1262 27.7359 10.5761 26.9212 10.9354L9.08754 17.6213C7.87004 18.0965 7.87745 18.756 8.86537 19.0505L13.4421 20.4394L24.0375 13.9406C24.5373 13.6454 24.9965 13.8038 24.6195 14.1293" fill="url(#paint1_linear)"/>
<defs>
<linearGradient id="paint0_linear" x1="25.2868" y1="6.0012" x2="16.4618" y2="27.1801" gradientUnits="userSpaceOnUse">
<stop stop-color="#37AEE2"/>
<stop offset="1" stop-color="#1E96C8"/>
</linearGradient>
<linearGradient id="paint1_linear" x1="20.4761" y1="18.3069" x2="22.4198" y2="22.8565" gradientUnits="userSpaceOnUse">
<stop stop-color="#EFF7FC"/>
<stop offset="1" stop-color="white"/>
</linearGradient>
</defs>
</svg>
