<svg width="38" height="36" viewBox="0 0 38 36" fill="none" xmlns="http://www.w3.org/2000/svg">
<path fill-rule="evenodd" clip-rule="evenodd" d="M0.542725 18C0.542725 8.059 8.83198 0 19.057 0C29.282 0 37.5713 8.059 37.5713 18C37.5713 27.941 29.282 36 19.057 36C8.83198 36 0.542725 27.941 0.542725 18Z" fill="#55ACEE"/>
<path fill-rule="evenodd" clip-rule="evenodd" d="M18.5015 14.6301L18.5416 15.2531L17.8936 15.1771C15.5372 14.8851 13.478 13.8931 11.7294 12.2281L10.8747 11.4021L10.6545 12.0121C10.1886 13.3721 10.4859 14.8091 11.4568 15.7751C11.9752 16.3081 11.858 16.3851 10.9652 16.0671C10.6545 15.9651 10.383 15.8891 10.3563 15.9271C10.2657 16.0171 10.5764 17.1731 10.8232 17.6301C11.1596 18.2661 11.8456 18.8891 12.5975 19.2571L13.2321 19.5501L12.4813 19.5631C11.7551 19.5631 11.7294 19.5751 11.8076 19.8431C12.0657 20.6681 13.0892 21.5451 14.2288 21.9271L15.0311 22.1941L14.3317 22.6001C13.2741 23.191 12.0808 23.5146 10.8613 23.5411C10.2791 23.5541 9.7998 23.6051 9.7998 23.6431C9.7998 23.7701 11.3797 24.4821 12.2992 24.7611C15.0579 25.5881 18.3339 25.2311 20.7952 23.8211C22.5438 22.8171 24.2913 20.8211 25.107 18.8891C25.5472 17.8591 25.9875 15.9781 25.9875 15.0761C25.9875 14.4911 26.0265 14.4151 26.7517 13.7161C27.1796 13.3091 27.5807 12.8641 27.6579 12.7361C27.7875 12.4961 27.7751 12.4961 27.1148 12.7111C26.0142 13.0931 25.8579 13.0411 26.402 12.4701C26.8031 12.0631 27.2824 11.3261 27.2824 11.1101C27.2824 11.0721 27.088 11.1351 26.8679 11.2501C26.6355 11.3771 26.1171 11.5671 25.7283 11.6821L25.0288 11.8981L24.3952 11.4781C24.0455 11.2491 23.5528 10.9951 23.2947 10.9191C22.6333 10.7411 21.6232 10.7661 21.0277 10.9691C19.4087 11.5421 18.3863 13.0161 18.5025 14.6311L18.5015 14.6301Z" fill="white"/>
</svg>
