<svg width="13" height="12" viewBox="0 0 13 12" fill="none" xmlns="http://www.w3.org/2000/svg">
<path d="M9.71008 8.38036L10.282 8.10947C11.3227 7.61659 12 6.5678 12 5.39615V4C12 2.34315 10.6569 1 9 1H4C2.34315 1 1 2.34315 1 4V5.39615C1 7.053 2.34315 8.39615 4 8.39615H6.27359L9.71008 10.3019V8.38036ZM10.7101 9.01323V12L6.01486 9.39615H4C1.79086 9.39615 0 7.60529 0 5.39615V4C0 1.79086 1.79086 0 4 0H9C11.2091 0 13 1.79086 13 4V5.39615C13 6.99346 12.0638 8.37211 10.7101 9.01323Z" fill="#545CA4"/>
</svg>
