<svg width="113" height="113" viewBox="0 0 113 113" fill="none" xmlns="http://www.w3.org/2000/svg">
<path d="M56.5 113C87.7041 113 113 87.7041 113 56.5C113 25.2959 87.7041 0 56.5 0C25.2959 0 0 25.2959 0 56.5C0 87.7041 25.2959 113 56.5 113Z" fill="#F4F6F8"/>
<path fill-rule="evenodd" clip-rule="evenodd" d="M37.9915 32.1465H81.9991V77.6271C81.9991 81.811 81.025 84.9283 76.7466 86.9399C73.8943 88.2822 68.3105 90.7994 59.9953 94.4914C51.7716 90.9026 46.1898 88.3865 43.2489 86.9408C38.837 84.7724 37.9915 81.6123 37.9915 76.2068V32.1465Z" fill="#FFB941"/>
<path fill-rule="evenodd" clip-rule="evenodd" d="M35.0688 27.2759H79.0765V72.7564C79.0765 76.9404 78.1024 80.0576 73.8239 82.0692C70.9717 83.4116 65.3879 85.9287 57.0727 89.6207C48.849 86.032 43.2672 83.5158 40.3263 82.0702C35.9144 79.9017 35.0688 76.7416 35.0688 71.3361V27.2759Z" stroke="black" stroke-width="1.5"/>
<path d="M42.2163 60.7278C45.5479 59.6329 47.6481 58.8964 48.519 58.5145C49.5155 58.0781 49.9802 57.5044 50.0825 57.3748C50.438 56.9267 50.9446 53.9595 48.518 47.4337C46.9019 43.0832 44.8007 39.8686 42.2163 37.7898V66.1995C42.2163 68.215 42.9206 72.0034 47.2185 72.0034H67.9355C71.4015 72.0034 72.2957 69.1414 72.2957 66.1995V37.3835C69.4133 39.9192 67.276 43.2693 65.884 47.4337C63.7964 53.6799 64.1032 56.6481 64.5221 57.3758C64.8007 57.8599 67.2887 58.8087 71.986 60.2222" stroke="black" stroke-width="1.5" stroke-linecap="round" stroke-linejoin="round"/>
<path d="M72.3201 60.7278C72.1711 62.0731 70.7303 63.1407 67.9988 63.9298C63.9006 65.1133 61.2325 65.73 59.3806 67.1941C58.1454 68.1702 57.445 69.7736 57.2804 72.0034M42.2163 60.7278C42.3654 62.0731 43.8061 63.1407 46.5376 63.9298C50.6358 65.1133 53.3039 65.73 55.1558 67.1941C56.391 68.1702 57.0914 69.7736 57.256 72.0034L42.2163 60.7278Z" stroke="black" stroke-width="1.5"/>
<path fill-rule="evenodd" clip-rule="evenodd" d="M57.2804 57.8346C53.453 61.8831 51.5388 65.7027 51.5388 69.2905C51.5388 72.8802 53.4442 76.0373 57.2551 78.762C61.1175 76.4484 63.0483 73.2922 63.0483 69.2905C63.0483 65.2897 61.1253 61.471 57.2794 57.8336L57.2804 57.8346Z" stroke="black" stroke-width="1.5"/>
<path d="M57.2949 46.2609V43.3647M57.2949 78.763V48.2773V78.763ZM57.2949 41.5285V34.1436V41.5285Z" stroke="black" stroke-width="1.5" stroke-linecap="round"/>
</svg>
