<svg width="113" height="113" viewBox="0 0 113 113" fill="none" xmlns="http://www.w3.org/2000/svg">
<path d="M56.5 113C87.7041 113 113 87.7041 113 56.5C113 25.2959 87.7041 0 56.5 0C25.2959 0 0 25.2959 0 56.5C0 87.7041 25.2959 113 56.5 113Z" fill="#F4F6F8"/>
<path d="M77.2387 23.8527H45.0921C43.4781 23.8527 42.1697 25.1611 42.1697 26.7751V88.1458C42.1697 89.7598 43.4781 91.0682 45.0921 91.0682H77.2387C78.8527 91.0682 80.1611 89.7598 80.1611 88.1458V26.7751C80.1611 25.1611 78.8527 23.8527 77.2387 23.8527Z" fill="#FFB941"/>
<path d="M72.0863 20.2416H38.4786C36.8646 20.2416 35.5562 21.55 35.5562 23.164V84.9107C35.5562 86.5247 36.8646 87.8331 38.4786 87.8331H72.0863C73.7003 87.8331 75.0087 86.5247 75.0087 84.9107V23.164C75.0087 21.55 73.7003 20.2416 72.0863 20.2416Z" stroke="black" stroke-width="1.5"/>
<path d="M70.138 26.9213H40.4268C39.3508 26.9213 38.4785 27.7935 38.4785 28.8695V78.4532C38.4785 79.5292 39.3508 80.4014 40.4268 80.4014H70.138C71.214 80.4014 72.0863 79.5292 72.0863 78.4532V28.8695C72.0863 27.7935 71.214 26.9213 70.138 26.9213Z" stroke="black" stroke-width="1.5"/>
<path d="M45.0383 49.6888H56.3393M49.0196 84.0272H60.9781H49.0196ZM50.3016 23.2955H60.2631H50.3016ZM45.0383 32.7749H64.6097H45.0383ZM45.0383 43.6336H66.3846H45.0383ZM45.0383 37.9953H56.3393H45.0383Z" stroke="black" stroke-width="1.5" stroke-linecap="round"/>
</svg>
