<svg width="113" height="113" viewBox="0 0 113 113" fill="none" xmlns="http://www.w3.org/2000/svg">
<path d="M56.5 113C87.7041 113 113 87.7041 113 56.5C113 25.2959 87.7041 0 56.5 0C25.2959 0 0 25.2959 0 56.5C0 87.7041 25.2959 113 56.5 113Z" fill="#F4F6F8"/>
<path fill-rule="evenodd" clip-rule="evenodd" d="M47.2804 25.0666C50.4767 23.4412 51.9126 23.0683 54.7058 23.0683C56.568 23.0683 61.3779 23.3028 69.1354 23.7719L74.9607 25.0666L78.4193 27.5743L73.6633 31.6022L71.6442 44.0617C73.493 45.1537 74.4174 46.2306 74.4174 47.2924C74.4174 48.3543 73.493 49.338 71.6442 50.2438C71.2594 54.2532 70.6058 57.1057 69.6833 58.801C68.7608 60.4964 66.8463 62.3637 63.9399 64.4029L64.3114 66.8789C69.1999 67.5786 72.7497 68.1935 74.9607 68.7237C78.2773 69.519 80.0177 72.9736 81.3183 77.8694C82.1118 80.8564 82.6098 84.6498 82.8123 89.2495H82.8123C82.848 90.06 82.3906 90.8117 81.6544 91.1525C76.2763 93.6419 68.3063 94.8866 57.7442 94.8866C46.8809 94.8866 39.0452 92.6684 34.2372 88.232L34.2372 88.232C33.8091 87.837 33.5745 87.275 33.5947 86.6929C33.7651 81.7789 34.3056 78.121 35.2163 75.7191C36.6634 71.9026 37.0148 70.1319 40.0084 69.1088C42.0528 68.4102 46.3883 67.5415 53.0149 66.5027C53.2442 65.2219 53.2442 64.522 53.0149 64.4029C44.5031 59.9802 46.2689 50.4819 45.8849 50.2438C44.0722 49.1194 42.7789 49.1923 42.7789 47.0081C42.7789 45.1544 43.8142 43.9514 45.8849 43.399C44.2577 39.2121 43.321 36.1944 43.075 34.3458C42.7059 31.5728 44.0841 26.6919 47.2804 25.0666Z" fill="#FFB941"/>
<path fill-rule="evenodd" clip-rule="evenodd" d="M43.8167 48.1755C43.4705 52.833 44.527 56.4944 46.9862 59.1597C50.6751 63.1577 54.933 63.8052 56.4969 63.8052C58.0607 63.8052 63.2786 62.329 65.9978 59.1597C67.8106 57.0468 68.9259 53.3854 69.3436 48.1755C71.2918 47.8332 72.2658 46.8495 72.2658 45.2241C72.2658 43.5988 71.2918 42.5219 69.3436 41.9934C65.9306 39.9286 63.7549 38.4882 62.8168 37.6723C61.8786 36.8564 60.2761 35.5394 58.0092 33.7213C55.2668 35.7099 52.9494 37.2227 51.0572 38.2598C49.165 39.2968 46.7515 40.3205 43.8167 41.3307C41.6953 41.9588 40.6345 43.2566 40.6345 45.2241C40.6345 47.1917 41.6953 48.1755 43.8167 48.1755Z" stroke="black" stroke-width="1.5" stroke-linejoin="round"/>
<path d="M43.8165 41.3307C41.9432 37.6755 41.0066 34.4086 41.0066 31.53C41.0066 27.2122 42.388 21 54.3861 21C66.3843 21 68.3436 21.7676 71.2935 22.6358C74.2434 23.5041 76.3509 24.8875 76.3509 25.506C76.3509 25.9183 74.5494 27.2609 70.9464 29.5339C70.8763 31.3555 70.6924 33.3804 70.3947 35.6086C70.097 37.8368 69.7466 39.9651 69.3435 41.9934" stroke="black" stroke-width="1.5" stroke-linejoin="round"/>
<path d="M70.9466 29.5338C69.7406 27.5494 68.2395 26.1914 66.4433 25.4599C64.6472 24.7284 62.4377 24.3887 59.8149 24.4407" stroke="black" stroke-width="1.5" stroke-linecap="round"/>
<path d="M50.9466 62.3027V64.6075C46.3621 65.2493 43.0439 65.8148 40.9921 66.3041C37.9143 67.038 34.0271 67.7683 32.883 73.9236C32.1203 78.0271 31.6593 81.8899 31.5 85.5121L38.0161 86.7478" stroke="black" stroke-width="1.5" stroke-linecap="round" stroke-linejoin="round"/>
<path d="M61.8717 62.3346V64.6394C66.4563 65.2812 69.7745 65.8467 71.8263 66.336C74.904 67.0699 78.7913 67.8002 79.9353 73.9555C80.698 78.059 81.159 81.9218 81.3184 85.5441L75.2579 86.7478" stroke="black" stroke-width="1.5" stroke-linecap="round" stroke-linejoin="round"/>
<path d="M48.3123 65.3582C50.8153 70.9665 53.4185 73.7707 56.1221 73.7707C58.8256 73.7707 61.5595 70.9665 64.3237 65.3582" stroke="black" stroke-width="1.5" stroke-linecap="round"/>
<path d="M42.4351 77.8694V92.7572" stroke="black" stroke-width="1.5" stroke-linecap="round"/>
<path d="M70.1597 77.8694V92.7572" stroke="black" stroke-width="1.5" stroke-linecap="round"/>
</svg>
