<svg width="113" height="113" viewBox="0 0 113 113" fill="none" xmlns="http://www.w3.org/2000/svg">
<path d="M56.5 113C87.7041 113 113 87.7041 113 56.5C113 25.2959 87.7041 0 56.5 0C25.2959 0 0 25.2959 0 56.5C0 87.7041 25.2959 113 56.5 113Z" fill="#F4F6F8"/>
<path fill-rule="evenodd" clip-rule="evenodd" d="M81.442 40.5H89.5C90.605 40.5 91.5 41.395 91.5 42.5V78.5C91.5 79.605 90.605 80.5 89.5 80.5H31.5C30.395 80.5 29.5 79.605 29.5 78.5V42.5C29.5 41.395 30.395 40.5 31.5 40.5H81.442Z" fill="#FFB941"/>
<path fill-rule="evenodd" clip-rule="evenodd" d="M77.442 36.5H85.5C86.605 36.5 87.5 37.395 87.5 38.5V74.5C87.5 75.605 86.605 76.5 85.5 76.5H27.5C26.395 76.5 25.5 75.605 25.5 74.5V38.5C25.5 37.395 26.395 36.5 27.5 36.5H77.442V36.5Z" stroke="black" stroke-width="1.5"/>
<path d="M31.5149 63.519H48.7759" stroke="black" stroke-width="1.5" stroke-linecap="round"/>
<path d="M25.5 46H87.5M25.5 53.398H87.5H25.5Z" stroke="black" stroke-width="1.5"/>
</svg>
