<svg width="100" height="60" viewBox="0 0 100 60" fill="none" xmlns="http://www.w3.org/2000/svg">
<path d="M46.6549 26.7658C46.6549 26.7658 45.9506 26.9888 45.0704 26.7658C44.1901 26.5427 43.3098 26.0966 43.3098 24.9814V14.9442H46.6549L45.7746 9.81411H43.3098V2.23047L37.1478 3.34571V15.8364C35.9154 11.1524 32.3943 8.02973 28.169 8.02973C24.1197 8.02973 20.5985 11.1524 19.3661 15.8364V12.0446C19.3661 12.0446 17.9577 8.47582 11.9718 8.47582C10.5633 8.47582 9.15486 8.69887 7.92247 9.14497V2.23047L1.7605 3.34571V31.4498H7.92247V14.7212C9.33092 14.4981 10.2112 14.2751 11.4436 14.4981C12.3239 14.7212 13.2042 15.1673 13.2042 16.7286V31.4498H19.3661V24.0892C20.7746 28.5502 24.1197 31.8959 28.169 31.8959C32.2182 31.8959 35.7394 28.5502 37.1478 23.8662V29.2193C37.1478 29.2193 39.4366 31.4498 43.1337 31.4498C46.8309 31.4498 47.7112 30.7807 47.7112 30.7807L46.6549 26.7658ZM28.169 25.4275C25.5281 25.4275 24.2957 22.5279 24.2957 19.8513C24.2957 17.1747 25.5281 14.2751 28.169 14.2751C30.8098 14.2751 32.0422 17.1747 32.0422 19.8513C32.0422 22.5279 30.8098 25.4275 28.169 25.4275Z" fill="#FFA726"/>
<path d="M58.6266 1.78442C56.8661 1.78442 55.4576 3.56881 55.4576 5.79929C55.4576 8.02978 56.8661 9.81416 58.6266 9.81416C60.3872 9.81416 61.7957 8.02978 61.7957 5.79929C61.7957 3.56881 60.3872 1.78442 58.6266 1.78442ZM55.6337 31.2268H61.7957V11.5985H55.6337V31.2268ZM47.8872 31.0038H54.0492V2.23052L47.8872 3.34576V31.0038ZM89.7886 26.5428C88.0281 25.8736 86.9717 24.7584 86.6196 23.1971H99.2957V20.9666C99.2957 12.9368 94.8942 8.02978 89.9647 8.02978C85.9154 8.02978 82.5703 11.1525 81.1619 15.6134V12.0446C81.1619 12.0446 78.8731 8.47587 73.5914 8.25283C68.3097 8.02978 63.5562 9.36807 63.5562 9.36807V31.4499H69.7182V14.7212C71.1266 14.4982 72.0069 14.2751 73.2393 14.4982C74.1196 14.7212 74.9999 15.1673 74.9999 16.7287V31.4499H80.9858V24.3123C82.3942 28.7733 85.7393 31.8959 89.7886 31.8959C93.3097 31.8959 95.9506 30.7807 97.5351 27.8811L95.4224 25.2045C93.3097 26.9889 91.021 26.7658 89.7886 26.5428ZM89.7886 13.829C92.2534 13.829 93.3097 16.0595 93.4858 18.067H86.0914C86.2675 16.0595 87.3238 13.829 89.7886 13.829Z" fill="#545CA4"/>
<path d="M99.6478 57.1004C99.6478 58.4387 98.7675 59.554 97.7112 59.554H3.87314C2.81681 59.554 1.93652 58.4387 1.93652 57.1004V39.9257C1.93652 38.5874 2.81681 37.4722 3.87314 37.4722H97.7112C98.7675 37.4722 99.6478 38.5874 99.6478 39.9257V57.1004Z" fill="#545CA4"/>
<path d="M9.50708 54.8699V41.9331H17.2536V44.6097H11.7958V47.2863H16.7254V49.9628H11.7958V54.8699H9.50708Z" fill="white"/>
<path d="M21.655 54.8699V41.9331H23.9438V54.8699H21.655Z" fill="white"/>
<path d="M29.0493 54.8699V41.9331H31.162L35.9155 49.9628V41.9331H38.2042V54.8699H36.2676L31.338 46.6171V54.8699H29.0493Z" fill="white"/>
<path d="M42.0774 54.8699L46.4788 41.7101H48.5915L52.9929 54.8699H50.7042L49.8239 51.9703H45.4225L44.5422 54.8699H42.0774ZM46.1267 49.5168H48.7675L47.5351 45.2789L46.1267 49.5168Z" fill="white"/>
<path d="M57.0422 54.8699V41.9331H59.1549L63.9084 49.9628V41.9331H66.1972V54.8699H64.2605L59.331 46.6171V54.8699H57.0422Z" fill="white"/>
<path d="M75.8803 55.093C74.2958 55.093 73.0634 54.4238 72.1831 53.0855C71.1268 51.7473 70.5986 50.1859 70.5986 48.4015C70.5986 46.6171 71.1268 44.8328 72.1831 43.7175C73.2395 42.3792 74.4719 41.7101 76.0564 41.7101C76.9367 41.7101 77.6409 41.9331 78.3451 42.1562C78.8733 42.6023 79.5775 43.0484 80.1057 43.7175L78.6972 45.725C78.3451 45.2789 77.8169 44.8328 77.4648 44.6097C77.1127 44.3867 76.5846 44.1636 76.0564 44.1636C75.1761 44.1636 74.4719 44.6097 73.9437 45.2789C73.4155 46.171 73.0634 47.0632 73.0634 48.1785C73.0634 49.2937 73.4155 50.1859 73.9437 51.0781C74.4719 51.9703 75.1761 52.1934 76.0564 52.1934C76.5846 52.1934 77.1127 51.9703 77.4648 51.7473C77.8169 51.5242 78.3451 51.0781 78.6972 50.632L80.1057 52.6395C79.5775 53.3086 78.8733 53.9777 78.3451 54.2008C77.6409 54.8699 76.7606 55.093 75.8803 55.093Z" fill="white"/>
<path d="M84.3311 54.8699V41.9331H92.0775V44.3866H86.6198V47.0632H91.3733V49.5168H86.6198V52.1933H92.2536V54.6469H84.3311V54.8699Z" fill="white"/>
</svg>
