<svg width="16" height="16" viewBox="0 0 16 16" fill="none" xmlns="http://www.w3.org/2000/svg">
<path d="M6.91748 9.79785C6.92464 9.37174 6.97298 9.03516 7.0625 8.78809C7.15202 8.54102 7.33464 8.26709 7.61035 7.96631L8.31396 7.24121C8.61475 6.90104 8.76514 6.53581 8.76514 6.14551C8.76514 5.76953 8.66667 5.47591 8.46973 5.26465C8.27279 5.0498 7.98633 4.94238 7.61035 4.94238C7.24512 4.94238 6.9515 5.03906 6.72949 5.23242C6.50749 5.42578 6.39648 5.68538 6.39648 6.01123H5.40283C5.40999 5.43115 5.61589 4.96387 6.02051 4.60938C6.42871 4.2513 6.95866 4.07227 7.61035 4.07227C8.28711 4.07227 8.81348 4.25488 9.18945 4.62012C9.56901 4.98177 9.75879 5.47949 9.75879 6.11328C9.75879 6.73991 9.46875 7.35758 8.88867 7.96631L8.30322 8.54639C8.04183 8.83643 7.91113 9.25358 7.91113 9.79785H6.91748ZM6.87451 11.5005C6.87451 11.3394 6.92285 11.2051 7.01953 11.0977C7.11979 10.9867 7.2666 10.9312 7.45996 10.9312C7.65332 10.9312 7.80013 10.9867 7.90039 11.0977C8.00065 11.2051 8.05078 11.3394 8.05078 11.5005C8.05078 11.6616 8.00065 11.7959 7.90039 11.9033C7.80013 12.0072 7.65332 12.0591 7.45996 12.0591C7.2666 12.0591 7.11979 12.0072 7.01953 11.9033C6.92285 11.7959 6.87451 11.6616 6.87451 11.5005Z" fill="#AAABAB"/>
<circle cx="8" cy="8" r="7.5" stroke="#AAABAB"/>
</svg>
