<svg width="18" height="26" viewBox="0 0 18 26" fill="none" xmlns="http://www.w3.org/2000/svg">
<path d="M1.4209 19.9471V13.3161C1.4209 9.65308 4.8139 6.68408 8.9999 6.68408C13.1859 6.68408 16.5789 9.65408 16.5789 13.3161V19.9471" stroke="#2E6AAB" stroke-width="1.5" stroke-linejoin="round"/>
<path d="M7.105 22.7899C7.105 23.0388 7.15402 23.2852 7.24925 23.5151C7.34448 23.745 7.48407 23.9539 7.66003 24.1299C7.836 24.3058 8.0449 24.4454 8.27481 24.5407C8.50473 24.6359 8.75115 24.6849 9 24.6849C9.24885 24.6849 9.49527 24.6359 9.72519 24.5407C9.9551 24.4454 10.164 24.3058 10.34 24.1299C10.5159 23.9539 10.6555 23.745 10.7508 23.5151C10.846 23.2852 10.895 23.0388 10.895 22.7899M0 20.4209H18H0Z" stroke="#2E6AAB" stroke-width="1.5" stroke-linecap="round"/>
<path d="M8.99998 4.79C10.0466 4.79 10.895 3.94158 10.895 2.895C10.895 1.84842 10.0466 1 8.99998 1C7.9534 1 7.10498 1.84842 7.10498 2.895C7.10498 3.94158 7.9534 4.79 8.99998 4.79Z" stroke="#2E6AAB" stroke-width="1.5"/>
</svg>
