<svg width="27" height="27" viewBox="0 0 27 27" fill="none" xmlns="http://www.w3.org/2000/svg">
<path d="M13.5002 25.6153C20.1913 25.6153 25.6155 20.191 25.6155 13.4999C25.6155 6.80876 20.1913 1.38452 13.5002 1.38452C6.80901 1.38452 1.38477 6.80876 1.38477 13.4999C1.38477 20.191 6.80901 25.6153 13.5002 25.6153Z" stroke="#2E6AAB" stroke-width="1.5"/>
<path d="M22.4005 21.879C21.3574 18.4401 17.7945 15.9072 13.5597 15.9072C9.28961 15.9072 5.70273 18.4824 4.69336 21.9649" stroke="#2E6AAB" stroke-width="1.5"/>
<path d="M13.48 13.2059C15.5388 13.2059 17.2078 11.5369 17.2078 9.47806C17.2078 7.41924 15.5388 5.75024 13.48 5.75024C11.4212 5.75024 9.7522 7.41924 9.7522 9.47806C9.7522 11.5369 11.4212 13.2059 13.48 13.2059Z" stroke="#2E6AAB" stroke-width="1.5"/>
</svg>
